<?xml version="1.0" encoding="UTF-8"?>
<svg id="Layer_1" data-name="Layer 1" xmlns="http://www.w3.org/2000/svg" viewBox="0 0 800 800">
  <defs>
    <style>
      .cls-1 {
        fill: #fff;
      }
    </style>
  </defs>
  <path class="cls-1" d="M400,470.31c38.75,0,70.47-31.56,70.47-70.47,0-15.31-5-29.53-13.28-41.09-12.81-17.66-33.59-29.37-57.03-29.37s-44.22,11.56-57.03,29.37c-8.28,11.56-13.28,25.78-13.28,41.09-.16,38.91,31.41,70.47,70.16,70.47Z"/>
  <polygon class="cls-1" points="553.75 313.91 553.75 254.84 553.75 246.09 545 246.09 485.94 246.25 486.25 314.06 553.75 313.91"/>
  <path class="cls-1" d="M509.38,400c0,60.31-49.06,109.38-109.38,109.38s-109.38-49.06-109.38-109.38c0-14.53,2.97-28.44,8.13-41.09h-59.69v163.75c0,21.09,17.19,38.28,38.28,38.28h245.31c21.09,0,38.28-17.19,38.28-38.28v-163.75h-59.69c5.31,12.66,8.12,26.56,8.12,41.09Z"/>
  <path class="cls-1" d="M400,0C179.06,0,0,179.06,0,400s179.06,400,400,400,400-179.06,400-400S620.94,0,400,0Zm200,358.91v163.75c0,42.66-34.69,77.34-77.34,77.34h-245.31c-42.66,0-77.34-34.69-77.34-77.34v-245.47c0-42.66,34.69-77.34,77.34-77.34h245.31c42.66,0,77.34,34.69,77.34,77.34v81.72Z"/>
</svg>